<?xml version="1.0" encoding="utf-8"?>
<!-- Generator: Adobe Illustrator 18.1.1, SVG Export Plug-In . SVG Version: 6.00 Build 0)  -->
<svg version="1.1" id="Layer_1" xmlns="http://www.w3.org/2000/svg" xmlns:xlink="http://www.w3.org/1999/xlink" x="0px" y="0px"
	 viewBox="0 0 960 560" enable-background="new 0 0 960 560" xml:space="preserve">
<g>
	<path fill="#FBB829" d="M714,280.3c0,37.8-9,73.6-24.9,105.2c-9.6,19.1-21.7,36.6-36,52.3c-42.8,47-104.5,76.5-173,76.5
		c-54.2,0-104.2-18.5-143.8-49.4c-10.3-8-19.8-16.8-28.6-26.4c-38.2-41.6-61.5-97.1-61.5-158c0-129.2,104.7-233.9,233.9-233.9
		S714,151.1,714,280.3z"/>
	<g>
		<path fill="#FCECDB" d="M406.3,374.9L406.3,374.9c-1,0.3-1.9,0.7-2.8,1c-0.9,0.4-1.8,0.7-2.7,1.1c-0.9,0.3-1.9,0.7-2.8,1.1
			c-0.9,0.4-1.8,0.8-2.7,1.2c-0.1,0-0.2,0.1-0.3,0.1c-0.8,0.4-1.6,0.8-2.3,1.1c-0.6,0.3-1.1,0.5-1.6,0.8c-0.5,0.3-1.1,0.5-1.6,0.8
			c-3.5,1.9-6.8,4-10.1,6.4c-0.7,0.5-1.3,1-2,1.5c-2.3,1.8-4.6,3.9-6.8,6c-0.3,0.3-0.7,0.6-1,1c-0.5,0.5-1,1-1.5,1.6
			c-0.8,0.8-1.5,1.6-2.2,2.4c-16.3,18.6-25.2,40.5-29.6,63.7c-10.3-8-19.8-16.8-28.6-26.4c-0.6-10.6-0.8-19.8-0.8-25.7
			c0-25.2,7.5-44,17.4-63.1c9.8-19.1,36.7-35.9,57.3-38.2c3.3-0.4,6.4-0.5,9.5-0.6c-0.3,0.8-0.6,1.5-0.8,2.3
			C386.9,334.8,399.9,354.4,406.3,374.9z"/>
		<path fill="#FCECDB" d="M467.6,161.5c-17.4,13.9-28.9,35.9-49.8,50.9c-4.2,3.4-8.1,6.7-11.9,10c0,0.1-0.1,0.2-0.1,0.2
			c5.9-0.5,10.2,1.7,16.9,2.5c5.3,0.6,13.6-1.6,19.7,0.5c11.4-5,23.9-8.3,29.7-19C479.2,193.9,476.9,155.7,467.6,161.5z"/>
		<path fill="#ACA7A5" d="M408.6,205.5c-1.2-3.5-8.1-4.6-10.4-9.3c-4.6-10.4,0-22,9.3-27.8c-6.4-1-13.1-2.2-19.8-3.5
			c-0.5,0.4-1.1,0.8-1.6,1.2c-11.3,7.5-10.1,9-21.4,16.2c-11.3,7.2-51.6,18-51.7,22c0,10,24,12.3,30.1,11.4s25.4,2.5,35,1.3
			s26,5.9,27.7,5.7c0.1-0.1,0.2-0.2,0.3-0.3C408.9,216.8,411.5,211.1,408.6,205.5z"/>
		<path fill="#404041" d="M527.8,280.7c-1.7-55.5-33.6-98.9-33.6-98.9s-16.2-36.4-34.7-41.1c-18.5-4.6-41.4-4.9-52.1,0
			c-10.2,4.7-10.2,16.6-19.8,24.2c6.7,1.3,13.3,2.5,19.8,3.5c-9.3,5.8-13.9,17.4-9.3,27.8c2.3,4.6,9.3,5.8,10.4,9.3
			c2.8,5.7,0.3,11.3-2.6,17c3.8-3.3,7.7-6.7,11.9-10c20.8-15,32.4-37,49.8-50.9c9.3-5.8,11.6,32.4,4.6,45.1
			c-5.9,10.7-18.3,14.1-29.7,19c1.1,0.4,2.1,0.9,3,1.5c11.9,8.8,18.9,23.3,20.4,37.9c1.2,11.6-9.3,23.7-9.3,23.7
			s-12.7,8.7-25.5,17.4c-10.7,7.3-24.1,4.4-40.3,4.6c-0.3,0.8-0.6,1.5-0.8,2.3c-3.3,21.7,9.8,41.3,16.2,61.8
			c27-8.9,57.8-8.3,86.8-12.1c3,0,6-0.6,8.8-1.9C526.3,347.4,528.6,304.6,527.8,280.7z"/>
		<path fill="#AF8560" d="M642.4,424.2c3.8,4.2,7.2,8.9,10.7,13.5c-42.8,47-104.5,76.5-173,76.5c-54.2,0-104.2-18.5-143.8-49.4
			c4.4-23.2,13.2-45.1,29.6-63.7c0.7-0.8,1.5-1.6,2.2-2.4c0.5-0.5,1-1.1,1.5-1.6c0.3-0.3,0.6-0.7,1-1c2.2-2.2,4.5-4.2,6.8-6
			c0.7-0.5,1.3-1,2-1.5c3.2-2.4,6.6-4.5,10.1-6.4c0.5-0.3,1-0.6,1.6-0.8c0.5-0.3,1.1-0.6,1.6-0.8c0.8-0.4,1.6-0.8,2.3-1.1
			c0.1,0,0.2-0.1,0.3-0.1c0.9-0.4,1.8-0.8,2.7-1.2c0.9-0.4,1.8-0.8,2.8-1.1c0.9-0.4,1.8-0.7,2.7-1.1c0.9-0.3,1.9-0.7,2.8-1v0
			c0.7-0.2,1.4-0.4,2.1-0.7c3.3-1,6.7-1.9,10.1-2.7c0.7-0.2,1.4-0.3,2-0.4c2.2-0.5,4.4-0.9,6.6-1.3c2.7-0.5,5.4-0.9,8.1-1.3
			c2.7-0.4,5.4-0.7,8.2-1c3.6-0.4,7.3-0.8,11-1.1c0,0,0,0,0,0c1.9-0.2,3.7-0.3,5.5-0.5c5.4-0.4,10.7-0.8,16-1.3
			c1.4-0.1,2.9-0.3,4.3-0.4c1.4-0.1,2.9-0.3,4.3-0.4c1.3-0.1,2.7-0.3,4-0.4c1.5-0.2,3-0.4,4.5-0.5c3,0,6-0.6,8.8-1.9
			c-0.4,0.2-0.8,0.4-1.2,0.7c0.2,0,1-0.3,2.5-0.6c1.7,0.5,3.3,1.1,5,1.8c22,9.3,44,17.4,67.1,24.3
			C599.6,394.1,623.9,406.8,642.4,424.2z"/>
		<path fill="#3F3229" d="M689.1,385.4c-9.6,19.1-21.7,36.6-36,52.3c-3.5-4.7-6.9-9.3-10.7-13.5c-18.5-17.4-42.8-30.1-67.1-37
			c-23.1-6.9-45.1-15-67.1-24.3c-1.6-0.7-3.3-1.3-5-1.8c8.9-2,41.3-7.5,98.1,0.6C630.5,365.9,660.4,374.1,689.1,385.4z"/>
		<circle fill="#FFFFFF" cx="428.3" cy="171.9" r="8.6"/>
		<circle fill="#404041" cx="428.3" cy="171.9" r="3.5"/>
	</g>
</g>
</svg>
