<?xml version="1.0" encoding="utf-8"?>
<!-- Generator: Adobe Illustrator 18.1.1, SVG Export Plug-In . SVG Version: 6.00 Build 0)  -->
<svg version="1.1" id="Layer_1" xmlns="http://www.w3.org/2000/svg" xmlns:xlink="http://www.w3.org/1999/xlink" x="0px" y="0px"
	 viewBox="0 0 244.6 223.1" enable-background="new 0 0 244.6 223.1" xml:space="preserve">
    <path fill="#fff" d="M147.5,103.1c-1.7,0-2.5-1.4-2.5-3.1V74c0-11.8-13.6-21-25-21s-25,9.2-25,21V100c0,1.7-1.3,3.1-3,3.1
        s-3-1.4-3-3.1V74c0-15.6,15.9-27.2,30.5-27.2S150,58.4,150,74V100C150,101.7,149.2,103.1,147.5,103.1z"/>
    <path fill="#fff" d="M145.4,176.3H99.2c-15.3,0-27.8-12.5-27.8-27.8v-21.5c0-15.3,12.5-27.8,27.8-27.8h46.1
        c15.3,0,27.8,12.5,27.8,27.8v21.5C173.2,163.8,160.7,176.3,145.4,176.3z M99.2,105.3c-11.9,0-21.6,9.7-21.6,21.6v21.5
        c0,11.9,9.7,21.6,21.6,21.6h46.1c11.9,0,21.6-9.7,21.6-21.6v-21.5c0-11.9-9.7-21.6-21.6-21.6H99.2z"/>
</svg>
