<?xml version="1.0" encoding="utf-8"?>
<!-- Generator: Adobe Illustrator 18.1.1, SVG Export Plug-In . SVG Version: 6.00 Build 0)  -->
<svg version="1.1" id="Layer_1" xmlns="http://www.w3.org/2000/svg" xmlns:xlink="http://www.w3.org/1999/xlink" x="0px" y="0px"
	 viewBox="0 0 244.6 223.1" enable-background="new 0 0 244.6 223.1" xml:space="preserve">
<g>
    <path class="usernameIcon" fill="#fff" d="M122.2,115.1c-18.6,0-33.7-15.1-33.7-33.7s15.1-33.7,33.7-33.7s33.7,15.1,33.7,33.7
        S140.8,115.1,122.2,115.1z M122.2,54.4c-14.9,0-27,12.1-27,27s12.1,27,27,27s27-12.1,27-27S137.1,54.4,122.2,54.4z"/>
    <path class="usernameIcon" fill="#fff" d="M172.7,174.7c0,0-0.1-0.7-0.1,0.3H71.9c-1.9,0-3.4-1.8-3.4-3.7c0-22.1,24.1-40.2,53.7-40.2
        c29.2,0,53,17.4,53.7,39c0.1,0.3,0.2,0.8,0.2,1.1C176.1,173.1,174.6,174.7,172.7,174.7z M75.5,167H169c-2.4-16-22.4-30-46.7-30
        C97.9,137,77.9,151,75.5,167z"/>
</g>
</svg>
